{"title":"Rise of the Planet of the Apes 2011 BRRiP READNFO AC3 XViD - U.S","uid":6801930,"size":1550443914,"categoryP":"video","categoryS":"movies","magnet":"?xt=urn:btih:c6287dc05b44655ee5427acfbccc4642193a3652&amp;dn=Rise+of+the+Planet+of+the+Apes+2011+BRRiP+READNFO+AC3+XViD+-+U.S&amp;tr=udp%3A%2F%2Ftracker.openbittorrent.com%3A80&amp;tr=udp%3A%2F%2Fopen.demonii.com%3A1337&amp;tr=udp%3A%2F%2Ftracker.coppersurfer.tk%3A6969&amp;tr=udp%3A%2F%2Fexodus.desync.com%3A6969","seeders":0,"leechers":0,"uploader":"TvTeam","files":6,"time":1320712020,"description":". \n &lt;a href=&quot;\nhttp://www.torrenting.com&quot; rel=&quot;nofollow&quot; target=&quot;_NEW&quot;&gt;\nhttp://www.torrenting.com&lt;/a&gt;          :     Once &amp; For all ;)\n\n\n               www . Torrenting . Com \n\n(((((((((((((= Enjoy No RAR releases =))))))))))))))))))))\n\n\n...................................NFO:....................................\n\n.UUUUUUUU     UUUUUUUU           SSSSSSSSSSSSSSS         MMMMMMMM               MMMMMMMM     \nU::::::U     U::::::U         SS:::::::::::::::S        M:::::::M             M:::::::M     \nU::::::U     U::::::U        S:::::SSSSSS::::::S        M::::::::M           M::::::::M     \nUU:::::U     U:::::UU        S:::::S     SSSSSSS        M:::::::::M         M:::::::::M     \n U:::::U     U:::::U         S:::::S                    M::::::::::M       M::::::::::M     \n U:::::D     D:::::U         S:::::S                    M:::::::::::M     M:::::::::::M     \n U:::::D     D:::::U          S::::SSSS                 M:::::::M::::M   M::::M:::::::M     \n U:::::D     D:::::U           SS::::::SSSSS            M::::::M M::::M M::::M M::::::M     \n U:::::D     D:::::U             SSS::::::::SS          M::::::M  M::::M::::M  M::::::M     \n U:::::D     D:::::U                SSSSSS::::S         M::::::M   M:::::::M   M::::::M     \n U:::::D     D:::::U                     S:::::S        M::::::M    M:::::M    M::::::M     \n U::::::U   U::::::U                     S:::::S        M::::::M     MMMMM     M::::::M     \n U:::::::UUU:::::::U         SSSSSSS     S:::::S        M::::::M               M::::::M     \n  UU:::::::::::::UU   ...... S::::::SSSSSS:::::S ...... M::::::M               M::::::M     \n    UU:::::::::UU     .::::. S:::::::::::::::SS  .::::. M::::::M               M::::::M     \n      UUUUUUUUU       ......  SSSSSSSSSSSSSSS    ...... MMMMMMMM               MMMMMMMM   \n\n\n\n              Rise of the Planet of the Apes 2011 BRRiP READNFO AC3 XViD - U.S.M\n\n\nSOURCES:\n\nRise of the Planet of the Apes 2011 BluRay 1080p DTS 2Audio x264-CHD\n\nIMDB:\n &lt;a href=&quot;\nhttp://www.imdb.com/title/tt1318514/&quot; rel=&quot;nofollow&quot; target=&quot;_NEW&quot;&gt;\nhttp://www.imdb.com/title/tt1318514/&lt;/a&gt;\n\n\nVideo\nID                               : 0\nFormat                           : MPEG-4 Visual\nFormat profile                   : Advanced Simple@L5\nFormat settings, BVOP            : 2\nFormat settings, QPel            : No\nFormat settings, GMC             : No warppoints\nFormat settings, Matrix          : Default (MPEG)\nMuxing mode                      : Packed bitstream\nCodec ID                         : XVID\nCodec ID/Hint                    : XviD\nDuration                         : 1h 44mn\nBit rate                         : 1 480 Kbps\nWidth                            : 720 pixels\nHeight                           : 304 pixels\nDisplay aspect ratio             : 2.35:1\nFrame rate                       : 23.976 fps\nColor space                      : YUV\nChroma subsampling               : 4:2:0\nBit depth                        : 8 bits\nScan type                        : Progressive\nCompression mode                 : Lossy\nBits/(Pixel*Frame)               : 0.282\nStream size                      : 1.08 GiB (76%)\nWriting library                  : XviD 64\n\nAudio\nID                               : 1\nFormat                           : AC-3\nFormat/Info                      : Audio Coding 3\nMode extension                   : CM (complete main)\nCodec ID                         : 2000\nDuration                         : 1h 44mn\nBit rate mode                    : Constant\nBit rate                         : 448 Kbps\nChannel(s)                       : 6 channels\nChannel positions                : Front: L C R, Side: L R, LFE\nSampling rate                    : 48.0 KHz\nBit depth                        : 16 bits\nCompression mode                 : Lossy\nStream size                      : 336 MiB (23%)\nAlignment                        : Split accross interleaves\nInterleave, duration             : 42 ms (1.00 video frame)\nInterleave, preload duration     : 500 ms\n\n\n\nWORKDONE:\n\nFirst off ripped the 1080p release,done what we normally do filter wise to it....then we noitced the subs\nnot hardcoded and all the packs full or ape only were wrong.\nSo we grabbed the ppvrip release,went through it and noted times and subs and then made our own .srt file and\nhardcoded it to our release....pita to do but not hard.\nAudio just convert to AC3 and remuxed.\n\nSCREENIES:\n\n[IMG]http://i.imgur.com/NNKI0.png[/IMG]\n[IMG]http://i.imgur.com/LUCDi.png[/IMG]\n[IMG]http://i.imgur.com/ZFavW.png[/IMG]","torrent":{"xt":"urn:btih:c6287dc05b44655ee5427acfbccc4642193a3652","amp;dn":"Rise+of+the+Planet+of+the+Apes+2011+BRRiP+READNFO+AC3+XViD+-+U.S","amp;tr":["udp%3A%2F%2Ftracker.openbittorrent.com%3A80","udp%3A%2F%2Fopen.demonii.com%3A1337","udp%3A%2F%2Ftracker.coppersurfer.tk%3A6969","udp%3A%2F%2Fexodus.desync.com%3A6969"],"infoHash":"c6287dc05b44655ee5427acfbccc4642193a3652","infoHashBuffer":{"type":"Buffer","data":[198,40,125,192,91,68,101,94,229,66,122,207,188,204,70,66,25,58,54,82]},"announce":[],"urlList":[]}}